
<svg width="42" height="42" viewBox="0 0 42 42" fill="none" xmlns="http://www.w3.org/2000/svg">
<g clip-path="url(#clip0_653_31)">
<path d="M36.75 0.65625H5.25C2.71294 0.65625 0.65625 2.71294 0.65625 5.25V36.75C0.65625 39.2871 2.71294 41.3438 5.25 41.3438H36.75C39.2871 41.3438 41.3438 39.2871 41.3438 36.75V5.25C41.3438 2.71294 39.2871 0.65625 36.75 0.65625Z" fill="#D9A82C" stroke="#6A3B0F" stroke-width="1.3125"/>
<path d="M34.125 1.3125H5.25C3.07538 1.3125 1.3125 3.07538 1.3125 5.25V36.75C1.3125 38.9246 3.07538 40.6875 5.25 40.6875H34.125C36.2996 40.6875 38.0625 38.9246 38.0625 36.75V5.25C38.0625 3.07538 36.2996 1.3125 34.125 1.3125Z" fill="#FCD571"/>
<path d="M17.4991 34.25V28.5922H23.1569V34.25H17.4991ZM17.4991 25.75V22.9078C17.4991 20.5703 18.7299 18.6578 21.1913 17.1703L21.6296 16.9047C22.6478 16.2937 23.1569 15.4615 23.1569 14.4078C23.1569 13.6464 22.878 12.9867 22.3202 12.4289C21.7713 11.8711 21.1116 11.5922 20.3413 11.5922H17.4991C15.7548 11.5922 14.8075 12.5307 14.6569 14.4078H11.8413C12.2752 10.6359 14.1611 8.75 17.4991 8.75H23.1569C24.7064 8.75 26.039 9.30781 27.1546 10.4234C28.2791 11.5302 28.8413 12.8583 28.8413 14.4078C28.8413 16.8693 27.7611 18.5737 25.6007 19.5211L25.1358 19.7203C24.1176 20.1719 23.5332 20.6146 23.3827 21.0484C23.2322 21.4823 23.1569 22.1021 23.1569 22.9078V25.75H17.4991Z" fill="#D9A82C"/>
<path fill-rule="evenodd" clip-rule="evenodd" d="M16.749 35V27.8422H23.9068V35H16.749ZM16.749 26.5V22.9078C16.749 20.2446 18.177 18.1158 20.8026 16.5288C20.8029 16.5287 20.8024 16.529 20.8026 16.5288L21.2436 16.2616C22.0702 15.7656 22.4068 15.1603 22.4068 14.4078C22.4068 13.8531 22.2126 13.3821 21.7898 12.9592L21.7855 12.955C21.375 12.5379 20.9069 12.3422 20.3412 12.3422H17.499C16.7613 12.3422 16.3021 12.5377 16.0081 12.8289C15.7057 13.1285 15.4712 13.6351 15.4044 14.4678L15.3491 15.1578H11L11.0961 14.3221C11.3244 12.3375 11.9465 10.7384 13.0507 9.63412C14.1678 8.5171 15.6839 8 17.499 8H23.1568C24.9083 8 26.4298 8.63902 27.6828 9.89108C28.9461 11.1355 29.5912 12.6543 29.5912 14.4078C29.5912 15.7493 29.296 16.9374 28.6645 17.9337C28.0317 18.9322 27.095 19.6847 25.9018 20.208L25.896 20.2105L25.4356 20.4078C24.9572 20.6202 24.6149 20.8159 24.3867 20.9888C24.1481 21.1695 24.0968 21.278 24.0912 21.2943C23.9813 21.6109 23.9068 22.1326 23.9068 22.9078V26.5H16.749ZM25.1357 19.7203L25.6006 19.5211C27.761 18.5737 28.8412 16.8693 28.8412 14.4078C28.8412 12.8583 28.279 11.5302 27.1545 10.4234C26.0389 9.30781 24.7063 8.75 23.1568 8.75H17.499C14.3901 8.75 12.5408 10.3859 11.9511 13.6578C11.9076 13.8989 11.871 14.1489 11.8412 14.4078H14.6568C14.8074 12.5307 15.7548 11.5922 17.499 11.5922H20.3412C21.1115 11.5922 21.7712 11.8711 22.3201 12.4289C22.8779 12.9867 23.1568 13.6464 23.1568 14.4078C23.1568 15.4615 22.6477 16.2937 21.6295 16.9047L21.1912 17.1703C18.7298 18.6578 17.499 20.5703 17.499 22.9078V25.75H23.1568V22.9078C23.1568 22.1021 23.2321 21.4823 23.3826 21.0484C23.5331 20.6146 24.1175 20.1719 25.1357 19.7203ZM17.499 34.25H23.1568V28.5922H17.499V34.25Z" fill="#6A3B0F"/>
</g>
<defs>
<clipPath id="clip0_653_31">
<rect width="42" height="42" fill="white"/>
</clipPath>
</defs>
</svg>
