<svg width="42" height="42" viewBox="0 0 42 42" fill="none" xmlns="http://www.w3.org/2000/svg">
<g clip-path="url(#clip0_653_7)">
<path d="M36.75 0.65625H5.25C2.71294 0.65625 0.65625 2.71294 0.65625 5.25V36.75C0.65625 39.2871 2.71294 41.3438 5.25 41.3438H36.75C39.2871 41.3438 41.3438 39.2871 41.3438 36.75V5.25C41.3438 2.71294 39.2871 0.65625 36.75 0.65625Z" fill="#D9A82C" stroke="#6A3B0F" stroke-width="1.3125"/>
<path d="M34.125 1.3125H5.25C3.07538 1.3125 1.3125 3.07538 1.3125 5.25V36.75C1.3125 38.9246 3.07538 40.6875 5.25 40.6875H34.125C36.2996 40.6875 38.0625 38.9246 38.0625 36.75V5.25C38.0625 3.07538 36.2996 1.3125 34.125 1.3125Z" fill="#FCD571"/>
<path d="M13.7945 14.12C13.5278 14.3067 13.2212 14.4 12.8745 14.4C12.5278 14.4 12.3545 14.12 12.3545 13.56C12.3545 13 12.5545 12.32 12.9545 11.52C13.3545 10.6933 13.9278 9.93334 14.6745 9.24001C16.4345 7.58668 18.7012 6.76001 21.4745 6.76001C24.2745 6.76001 26.4612 7.37334 28.0345 8.60001C29.6345 9.82668 30.4345 11.52 30.4345 13.68C30.4345 15.84 30.1812 17.52 29.6745 18.72C29.1678 19.92 28.5278 20.88 27.7545 21.6C26.9812 22.2933 26.1545 22.84 25.2745 23.24C24.3945 23.64 23.5678 24.04 22.7945 24.44C22.0212 24.8133 21.3812 25.28 20.8745 25.84C20.3678 26.4 20.1145 27.1867 20.1145 28.2C20.1145 28.36 19.9812 28.44 19.7145 28.44C19.2078 28.44 18.6612 28.2667 18.0745 27.92C17.5145 27.5733 17.2345 27.12 17.2345 26.56C17.2345 24.2133 17.8345 22.4667 19.0345 21.32C19.5412 20.84 20.0878 20.44 20.6745 20.12C21.2878 19.8 21.8478 19.4267 22.3545 19C23.5545 17.9867 24.1545 16.4667 24.1545 14.44C24.1545 13.2133 23.8078 12.2667 23.1145 11.6C22.4212 10.9333 21.5545 10.6 20.5145 10.6C19.5012 10.6 18.6745 10.6933 18.0345 10.88C17.4212 11.0667 16.9012 11.3067 16.4745 11.6C16.0478 11.8667 15.6878 12.1733 15.3945 12.52C15.1012 12.84 14.8212 13.1467 14.5545 13.44C14.3145 13.7067 14.0612 13.9333 13.7945 14.12ZM15.5545 30.8C16.4878 30.3467 17.5012 30.12 18.5945 30.12C19.7145 30.12 20.2745 30.68 20.2745 31.8C20.2745 32.92 19.9145 33.9333 19.1945 34.84C18.5012 35.7467 17.7545 36.1867 16.9545 36.16C16.1812 36.16 15.5145 35.8267 14.9545 35.16C14.3945 34.52 14.1145 33.8667 14.1145 33.2C14.1412 32.0533 14.6212 31.2533 15.5545 30.8Z" fill="#D9A82C"/>
<path fill-rule="evenodd" clip-rule="evenodd" d="M23.1145 11.6C22.4212 10.9333 21.5545 10.6 20.5145 10.6C19.5012 10.6 18.6745 10.6933 18.0345 10.88C17.4212 11.0667 16.9012 11.3067 16.4745 11.6C16.0478 11.8667 15.6878 12.1733 15.3945 12.52C15.1012 12.84 14.8212 13.1467 14.5545 13.44C14.3145 13.7067 14.0612 13.9333 13.7945 14.12C13.5278 14.3067 13.2212 14.4 12.8745 14.4C12.5278 14.4 12.3545 14.12 12.3545 13.56C12.3545 13 12.5545 12.32 12.9545 11.52C13.3545 10.6933 13.9278 9.93334 14.6745 9.24001C16.4345 7.58668 18.7012 6.76001 21.4745 6.76001C24.2745 6.76001 26.4612 7.37334 28.0345 8.60001C29.6345 9.82668 30.4345 11.52 30.4345 13.68C30.4345 15.84 30.1812 17.52 29.6745 18.72C29.1678 19.92 28.5278 20.88 27.7545 21.6C26.9812 22.2933 26.1545 22.84 25.2745 23.24C24.3945 23.64 23.5678 24.04 22.7945 24.44C22.0212 24.8133 21.3812 25.28 20.8745 25.84C20.3678 26.4 20.1145 27.1867 20.1145 28.2C20.1145 28.36 19.9812 28.44 19.7145 28.44C19.2078 28.44 18.6612 28.2667 18.0745 27.92C17.5145 27.5733 17.2345 27.12 17.2345 26.56C17.2345 24.2133 17.8345 22.4667 19.0345 21.32C19.5412 20.84 20.0878 20.44 20.6745 20.12C21.2878 19.8 21.8478 19.4267 22.3545 19C23.5545 17.9867 24.1545 16.4667 24.1545 14.44C24.1545 13.2133 23.8078 12.2667 23.1145 11.6ZM21.8709 18.4267C22.8556 17.595 23.4045 16.3145 23.4045 14.44C23.4045 13.3581 23.1031 12.6295 22.5947 12.1406C22.053 11.6198 21.3779 11.35 20.5145 11.35C19.5418 11.35 18.7944 11.4403 18.2486 11.5988C17.694 11.768 17.2488 11.9778 16.8994 12.218L16.8859 12.2273L16.872 12.236C16.5041 12.4659 16.2051 12.7231 15.967 13.0045L15.9574 13.0158L15.9474 13.0268C15.6551 13.3456 15.3762 13.6511 15.1107 13.9431C14.8368 14.2472 14.5418 14.5124 14.2246 14.7344C13.8235 15.0152 13.3645 15.15 12.8745 15.15C12.458 15.15 12.0787 14.9594 11.8468 14.5848C11.6517 14.2696 11.6045 13.8931 11.6045 13.56C11.6045 12.8355 11.8585 12.0359 12.2815 11.1889C12.7259 10.272 13.3572 9.44007 14.1626 8.69182C16.0822 6.88944 18.5416 6.01001 21.4745 6.01001C24.3742 6.01001 26.7444 6.64424 28.4932 8.00667C30.2915 9.38647 31.1845 11.3071 31.1845 13.68C31.1845 15.8828 30.9285 17.6782 30.3654 19.0117C29.8269 20.2871 29.1321 21.3421 28.2656 22.1489L28.2552 22.1585L28.2551 22.1584C27.4293 22.8989 26.5392 23.489 25.5848 23.9228C24.7151 24.3181 23.9 24.7126 23.1391 25.1062L23.1299 25.1109L23.1206 25.1154C22.4224 25.4524 21.8641 25.8641 21.4306 26.3432C21.0862 26.7239 20.8645 27.3081 20.8645 28.2C20.8645 28.5341 20.7009 28.8428 20.4004 29.0231C20.1609 29.1668 19.8983 29.19 19.7145 29.19C19.035 29.19 18.3567 28.9579 17.6929 28.5657L17.6863 28.5618L17.6797 28.5577C16.9445 28.1026 16.4845 27.4292 16.4845 26.56C16.4845 24.0948 17.1157 22.1162 18.5163 20.7778L18.5187 20.7755C19.0703 20.2529 19.6693 19.814 20.3154 19.4616L20.3275 19.455L20.3276 19.4551C20.8943 19.1594 21.4081 18.8164 21.8709 18.4267ZM13.3645 33.1913L13.3647 33.1826C13.3804 32.5088 13.5307 31.8885 13.8514 31.3541C14.1745 30.8156 14.6444 30.4083 15.2268 30.1254C16.2677 29.6198 17.3939 29.37 18.5945 29.37C19.2701 29.37 19.9146 29.5394 20.3848 30.0097C20.8551 30.4799 21.0245 31.1244 21.0245 31.8C21.0245 33.0932 20.6048 34.2678 19.7861 35.301C19.0161 36.3058 18.0692 36.9426 16.9422 36.91C15.9256 36.9064 15.064 36.4537 14.3851 35.6483C13.7424 34.9117 13.3645 34.0917 13.3645 33.2V33.1913ZM16.9545 36.16C17.7545 36.1867 18.5012 35.7467 19.1945 34.84C19.9145 33.9333 20.2745 32.92 20.2745 31.8C20.2745 30.68 19.7145 30.12 18.5945 30.12C17.5012 30.12 16.4878 30.3467 15.5545 30.8C14.6212 31.2533 14.1412 32.0533 14.1145 33.2C14.1145 33.8667 14.3945 34.52 14.9545 35.16C15.5145 35.8267 16.1812 36.16 16.9545 36.16Z" fill="#6A3B0F"/>
</g>
<defs>
<clipPath id="clip0_653_7">
<rect width="42" height="42" fill="white"/>
</clipPath>
</defs>
</svg>
